<svg width="24" height="25" viewBox="0 0 24 25" fill="none" xmlns="http://www.w3.org/2000/svg">
<g id="rating__icon--md">
<path id="Vector" d="M12.4237 18.5797L7.85581 21.3315C7.65402 21.4599 7.44305 21.5149 7.2229 21.4966C7.00276 21.4782 6.81014 21.4048 6.64503 21.2764C6.47993 21.148 6.35151 20.9875 6.25979 20.7949C6.16806 20.6022 6.14972 20.3867 6.20475 20.1482L7.41553 14.9474L3.37043 11.4526C3.18698 11.2875 3.07232 11.0995 3.02646 10.8885C2.9806 10.6775 2.99436 10.4711 3.06774 10.2693C3.14112 10.0676 3.25119 9.90245 3.39795 9.77403C3.54471 9.64561 3.74651 9.56306 4.00334 9.52637L9.34177 9.05857L11.4056 4.16042C11.4973 3.94028 11.6395 3.77518 11.8321 3.66511C12.0247 3.55504 12.2219 3.5 12.4237 3.5C12.6255 3.5 12.8228 3.55504 13.0154 3.66511C13.208 3.77518 13.3502 3.94028 13.4419 4.16042L15.5057 9.05857L20.8442 9.52637C21.101 9.56306 21.3028 9.64561 21.4495 9.77403C21.5963 9.90245 21.7064 10.0676 21.7798 10.2693C21.8531 10.4711 21.8669 10.6775 21.821 10.8885C21.7752 11.0995 21.6605 11.2875 21.4771 11.4526L17.432 14.9474L18.6427 20.1482C18.6978 20.3867 18.6794 20.6022 18.5877 20.7949C18.496 20.9875 18.3676 21.148 18.2025 21.2764C18.0374 21.4048 17.8447 21.4782 17.6246 21.4966C17.4044 21.5149 17.1935 21.4599 16.9917 21.3315L12.4237 18.5797Z" fill="#F9B529"/>
</g>
</svg>
